<svg width="60" height="60" viewBox="0 0 60 60" fill="none" xmlns="http://www.w3.org/2000/svg">
<path d="M27.1754 7.9582C27.9119 5.01849 32.0851 5.01849 32.8245 7.9582L33.0397 8.82496C33.1656 9.32868 33.424 9.78952 33.7881 10.1597C34.1522 10.5298 34.6087 10.7958 35.1103 10.93C35.6118 11.0642 36.1402 11.0618 36.6405 10.9229C37.1408 10.784 37.5948 10.5138 37.9554 10.1403L38.5767 9.5008C40.683 7.32177 44.2985 9.40988 43.4651 12.3223L43.2226 13.183C43.0799 13.682 43.0732 14.2101 43.2034 14.7125C43.3335 15.2149 43.5956 15.6734 43.9626 16.0404C44.3296 16.4074 44.7881 16.6695 45.2905 16.7997C45.7929 16.9298 46.321 16.9231 46.82 16.7804L47.6777 16.5349C50.5871 15.7015 52.6782 19.317 50.4992 21.4233L49.8597 22.0446C49.4862 22.4052 49.216 22.8592 49.0771 23.3595C48.9382 23.8598 48.9358 24.3881 49.07 24.8897C49.2042 25.3913 49.4702 25.8478 49.8403 26.2119C50.2105 26.576 50.6713 26.8344 51.175 26.9603L52.0418 27.1754C54.9815 27.9119 54.9815 32.0851 52.0418 32.8245L51.175 33.0397C50.6713 33.1656 50.2105 33.424 49.8403 33.7881C49.4702 34.1522 49.2042 34.6087 49.07 35.1103C48.9358 35.6118 48.9382 36.1402 49.0771 36.6405C49.216 37.1408 49.4862 37.5948 49.8597 37.9554L50.4992 38.5767C52.6782 40.683 50.5901 44.2985 47.6777 43.4651L46.817 43.2226C46.318 43.0799 45.7899 43.0732 45.2875 43.2034C44.785 43.3335 44.3266 43.5956 43.9596 43.9626C43.5926 44.3296 43.3304 44.7881 43.2003 45.2905C43.0702 45.7929 43.0769 46.321 43.2196 46.82L43.4651 47.6777C44.2985 50.5871 40.683 52.6782 38.5767 50.4992L37.9554 49.8597C37.5948 49.4862 37.1408 49.216 36.6405 49.0771C36.1402 48.9382 35.6118 48.9358 35.1103 49.07C34.6087 49.2042 34.1522 49.4702 33.7881 49.8403C33.424 50.2105 33.1656 50.6713 33.0397 51.175L32.8245 52.0418C32.0881 54.9815 27.9149 54.9815 27.1754 52.0418L26.9603 51.175C26.8344 50.6713 26.576 50.2105 26.2119 49.8403C25.8478 49.4702 25.3913 49.2042 24.8897 49.07C24.3881 48.9358 23.8598 48.9382 23.3595 49.0771C22.8592 49.216 22.4052 49.4862 22.0446 49.8597L21.4233 50.4992C19.317 52.6782 15.7015 50.5901 16.5349 47.6777L16.7773 46.817C16.9198 46.3183 16.9264 45.7906 16.7964 45.2885C16.6664 44.7865 16.4046 44.3283 16.038 43.9614C15.6714 43.5945 15.2134 43.3323 14.7115 43.2019C14.2095 43.0714 13.6818 43.0776 13.183 43.2196L12.3223 43.4651C9.41291 44.2985 7.32177 40.683 9.5008 38.5767L10.1403 37.9554C10.5138 37.5948 10.784 37.1408 10.9229 36.6405C11.0618 36.1402 11.0642 35.6118 10.93 35.1103C10.7958 34.6087 10.5298 34.1522 10.1597 33.7881C9.78952 33.424 9.32868 33.1656 8.82496 33.0397L7.9582 32.8245C5.01849 32.0881 5.01849 27.9149 7.9582 27.1754L8.82496 26.9603C9.32868 26.8344 9.78952 26.576 10.1597 26.2119C10.5298 25.8478 10.7958 25.3913 10.93 24.8897C11.0642 24.3881 11.0618 23.8598 10.9229 23.3595C10.784 22.8592 10.5138 22.4052 10.1403 22.0446L9.5008 21.4233C7.32177 19.317 9.40988 15.7015 12.3223 16.5349L13.183 16.7773C13.6817 16.9198 14.2094 16.9264 14.7115 16.7964C15.2135 16.6664 15.6717 16.4046 16.0386 16.038C16.4055 15.6714 16.6677 15.2134 16.7981 14.7115C16.9285 14.2095 16.9224 13.6818 16.7804 13.183L16.5349 12.3223C15.7015 9.41291 19.317 7.32177 21.4233 9.5008L22.0446 10.1403C22.4052 10.5138 22.8592 10.784 23.3595 10.9229C23.8598 11.0618 24.3881 11.0642 24.8897 10.93C25.3913 10.7958 25.8478 10.5298 26.2119 10.1597C26.576 9.78952 26.8344 9.32868 26.9603 8.82496L27.1754 7.9582ZM45.0713 31.5153H30.7577L22.1688 42.9681C24.3566 44.2894 26.8431 45.0358 29.3969 45.1375C31.9507 45.2393 34.4887 44.6932 36.7747 43.55C39.0606 42.4069 41.0201 40.704 42.4708 38.5997C43.9214 36.4955 44.8161 34.0584 45.0713 31.5153ZM45.0713 28.4847C44.8161 25.9416 43.9214 23.5045 42.4708 21.4003C41.0201 19.296 39.0606 17.5931 36.7747 16.4499C34.4887 15.3068 31.9507 14.7607 29.3969 14.8625C26.8431 14.9642 24.3566 15.7105 22.1688 17.0319L30.7577 28.4877L45.0713 28.4847ZM19.7474 18.8533C18.2023 20.2696 16.9691 21.9922 16.1264 23.9113C15.2837 25.8304 14.85 27.904 14.8529 30C14.8529 34.4096 16.7379 38.3797 19.7474 41.1467L28.1058 30L19.7474 18.8533Z" fill="white"/>
</svg>
