<svg width="36" height="36" viewBox="0 0 36 36" fill="none" xmlns="http://www.w3.org/2000/svg">
<g clip-path="url(#clip0_3_59)">
<path d="M30.4763 6.54075C28.1422 5.46881 25.6789 4.70418 23.1481 4.266C23.1252 4.26214 23.1016 4.26547 23.0806 4.27554C23.0597 4.28562 23.0424 4.30193 23.0311 4.32225C22.7138 4.88475 22.3628 5.6205 22.1176 6.1965C19.3897 5.78286 16.615 5.78286 13.8871 6.1965C13.6147 5.55431 13.3051 4.92851 12.9601 4.32225C12.9488 4.30193 12.9315 4.28562 12.9105 4.27554C12.8896 4.26547 12.866 4.26214 12.8431 4.266C10.3118 4.7025 7.84807 5.4675 5.51482 6.54075C5.49476 6.5482 5.47801 6.56256 5.46757 6.58125C0.801075 13.554 -0.479175 20.3557 0.148575 27.072C0.153075 27.105 0.168825 27.1327 0.195825 27.1552C2.91375 29.1672 5.95305 30.704 9.18457 31.7002C9.20739 31.7074 9.23191 31.7072 9.25457 31.6995C9.27723 31.6918 9.29685 31.6771 9.31057 31.6575C10.0051 30.7125 10.6186 29.7157 11.1511 28.6672C11.1621 28.6457 11.1659 28.6211 11.1619 28.5971C11.1578 28.5732 11.1461 28.5512 11.1286 28.5345L11.0881 28.5097C10.1191 28.1362 9.18036 27.6886 8.28008 27.171C8.25494 27.1568 8.23625 27.1334 8.22788 27.1057C8.2195 27.0781 8.22208 27.0483 8.23507 27.0225L8.26882 26.9797C8.45932 26.8372 8.64532 26.691 8.82683 26.541C8.84273 26.5282 8.8618 26.52 8.88202 26.5172C8.90223 26.5144 8.92282 26.5172 8.94157 26.5252C14.8343 29.2162 21.2131 29.2162 27.0338 26.5252C27.0532 26.5163 27.0746 26.5131 27.0957 26.5158C27.1168 26.5186 27.1367 26.5274 27.1531 26.541C27.3346 26.691 27.5206 26.8372 27.7111 26.9797C27.7269 26.9906 27.7397 27.0053 27.7483 27.0225C27.7568 27.0396 27.7608 27.0587 27.7599 27.0779C27.759 27.097 27.7532 27.1157 27.7431 27.132C27.733 27.1483 27.7189 27.1617 27.7021 27.171C26.8057 27.6968 25.8654 28.144 24.8918 28.5075C24.8763 28.5131 24.8622 28.5221 24.8506 28.5337C24.8389 28.5454 24.8299 28.5595 24.8243 28.575C24.8188 28.59 24.8166 28.6059 24.8178 28.6218C24.8189 28.6378 24.8235 28.6532 24.8311 28.6672C25.3711 29.7135 25.9898 30.7125 26.6693 31.6575C26.6831 31.6771 26.7027 31.6918 26.7253 31.6995C26.748 31.7072 26.7725 31.7074 26.7953 31.7002C30.0332 30.7095 33.0779 29.1723 35.7976 27.1552C35.8111 27.1457 35.8223 27.1333 35.8305 27.1189C35.8387 27.1045 35.8436 27.0885 35.8448 27.072C36.5963 19.3072 34.5871 12.5617 30.5213 6.5835C30.5178 6.57329 30.5119 6.56408 30.504 6.55664C30.4962 6.5492 30.4867 6.54375 30.4763 6.54075ZM12.0308 22.9815C10.2556 22.9815 8.79532 21.3525 8.79532 19.3545C8.79532 17.3565 10.2286 15.7252 12.0308 15.7252C13.8466 15.7252 15.2933 17.3677 15.2663 19.3545C15.2663 21.3525 13.8331 22.9815 12.0308 22.9815ZM23.9918 22.9815C22.2188 22.9815 20.7563 21.3525 20.7563 19.3545C20.7563 17.3565 22.1896 15.7252 23.9918 15.7252C25.8076 15.7252 27.2566 17.3677 27.2273 19.3545C27.2273 21.3525 25.8076 22.9815 23.9918 22.9815Z" fill="white"/>
</g>
<defs>
<clipPath id="clip0_3_59">
<rect width="36" height="36" fill="white"/>
</clipPath>
</defs>
</svg>
