<svg width="36" height="36" viewBox="0 0 36 36" fill="none" xmlns="http://www.w3.org/2000/svg">
<path d="M19.249 1.79648L19.2485 1.79644C19.0356 1.78023 18.8215 1.80611 18.6186 1.87261C18.4157 1.93911 18.2279 2.04492 18.0659 2.18401C17.9038 2.3231 17.7708 2.49273 17.6744 2.68323C17.5779 2.87374 17.5199 3.08137 17.5037 3.29428C17.4875 3.50719 17.5134 3.72121 17.5799 3.92413C17.6464 4.12704 17.7522 4.31487 17.8913 4.47688C18.0303 4.6389 18.2 4.77193 18.3905 4.86839C18.5808 4.96476 18.7882 5.02273 19.0009 5.03901C21.4793 5.23075 23.8508 6.12905 25.8343 7.62745C27.8177 9.12584 29.33 11.1615 30.1919 13.4931C31.0537 15.8248 31.229 18.3546 30.6969 20.7828C30.1648 23.211 28.9477 25.4358 27.1899 27.1934C25.432 28.951 23.2071 30.1677 20.7788 30.6994C18.3505 31.2311 15.8206 31.0555 13.4891 30.1932C11.1576 29.331 9.12223 27.8185 7.62414 25.8348C6.12606 23.8511 5.22812 21.4795 5.03677 19.001L5.03681 19.001L5.03619 18.9942C4.99751 18.5691 4.79312 18.1763 4.4672 17.9007L4.14433 18.2824L4.4672 17.9007C4.14127 17.625 3.71998 17.4887 3.29436 17.5211C2.86875 17.5536 2.47299 17.7522 2.19261 18.074C1.91223 18.3959 1.76974 18.8151 1.79594 19.2412L1.79588 19.2412L1.79648 19.249C2.03565 22.3472 3.15811 25.3118 5.03081 27.7915C6.90352 30.2712 9.44794 32.162 12.3625 33.2397C15.277 34.3174 18.4394 34.5368 21.4749 33.872C24.5103 33.2072 27.2915 31.686 29.4888 29.4888C31.686 27.2915 33.2072 24.5103 33.872 21.4749C34.5368 18.4394 34.3174 15.277 33.2397 12.3625C32.162 9.44794 30.2712 6.90352 27.7915 5.03081C25.3118 3.15811 22.3472 2.03565 19.249 1.79648Z" fill="white" stroke="white"/>
<path d="M15.6124 17.9666L15.6124 17.9666L15.6186 17.9727C15.9251 18.2687 16.3356 18.4325 16.7617 18.4288C17.1877 18.4251 17.5953 18.2542 17.8966 17.9529C18.1979 17.6516 18.3688 17.244 18.3725 16.8179C18.3762 16.3919 18.2124 15.9814 17.9164 15.6749L17.9164 15.6749L17.9103 15.6687L7.29786 5.05627H12.3188C12.7497 5.05627 13.1631 4.88507 13.4678 4.58032C13.7725 4.27558 13.9438 3.86225 13.9438 3.43127C13.9438 3.0003 13.7725 2.58697 13.4678 2.28223C13.1631 1.97748 12.7497 1.80627 12.3188 1.80627H3.375C2.94402 1.80627 2.5307 1.97748 2.22595 2.28223C1.9212 2.58697 1.75 3.0003 1.75 3.43127V12.375C1.75 12.806 1.9212 13.2193 2.22595 13.5241C2.5307 13.8288 2.94402 14 3.375 14C3.80598 14 4.2193 13.8288 4.52405 13.5241C4.8288 13.2193 5 12.806 5 12.375V7.35413L15.6124 17.9666Z" fill="white" stroke="white"/>
</svg>
